<?xml version="1.0" encoding="utf-8"?>
<!-- Generator: Adobe Illustrator 16.0.0, SVG Export Plug-In . SVG Version: 6.00 Build 0)  -->
<!DOCTYPE svg PUBLIC "-//W3C//DTD SVG 1.1//EN" "http://www.w3.org/Graphics/SVG/1.1/DTD/svg11.dtd">
<svg version="1.1" id="Layer_1" xmlns="http://www.w3.org/2000/svg" xmlns:xlink="http://www.w3.org/1999/xlink" x="0px" y="0px"
	 width="1027px" height="400px" viewBox="0 0 1027 400" enable-background="new 0 0 1027 400" xml:space="preserve">
<g id="Base">
	<rect id="Areas" x="1" y="1" fill="#9E9E9E" width="1027" height="400"/>
	<g id="Colchester">
		<rect x="516.521" y="45.182" fill="#F4F3E9" width="504.334" height="27.333"/>
		<text transform="matrix(1.1445 0 0 1 558.6465 63.0332)" font-family="'MyriadPro-Bold'" font-size="11.6879">COLCHESTER STREET</text>
	</g>
	<text transform="matrix(1.1445 0 0 1 622.6465 356.0332)" font-family="'MyriadPro-Bold'" font-size="11.6879">WEST END</text>
	<g id="Ernest">
		<polygon fill="#F4F3E9" points="499.522,368.518 499.522,141.349 493.629,135.849 493.629,91.683 499.522,82.849 499.522,7.849 
			516.855,7.849 516.855,84.662 523.271,91.683 523.271,135.849 516.855,141.849 516.855,368.518 		"/>
		<text transform="matrix(0.0133 -1.1444 0.9999 0.0117 513.5234 202.9277)" font-family="'MyriadPro-Bold'" font-size="11.6859">ERNEST STREET</text>
	</g>
	<g id="Meriva">
		<rect x="3.522" y="306.518" fill="#F4F3E9" width="1017.333" height="28.666"/>
		<text transform="matrix(1.3988 0 0 1 454.3975 323.5078)" font-family="'MyriadPro-Bold'" font-size="9.5628">MERIVALE STREET</text>
	</g>
	<g id="Educational">
		<path fill="#F4F3E9" d="M4.189,116.516c0,0,120.667,49.958,221.75,70.667c165.193,33.842,216.246,34.038,274.25,37.917
			c21.322,1.426,252.758-6.584,330.379-23.916c77.621-17.333,190.953-61.333,190.953-61.333v20c0,0-106,47.167-185.332,58.333
			c-140.705,19.806-281.603,26.33-327.072,24.332c-45.472-1.996-181.43-15.166-283.179-35.5
			c-86.272-17.239-221.75-73.167-221.75-73.167L4.189,116.516L4.189,116.516z"/>
		<text transform="matrix(1.1084 0.285 -0.2491 0.9685 105.7471 170.5615)" font-family="'MyriadPro-Bold'" font-size="11.6879">EDUCATIONAL PATHWAY</text>
	</g>
</g>
<g id="Rooms">
	<a id="A" xlink:href="#" >
		<g>
			<polygon fill="#2DBE2C" points="17.522,94.099 17.522,48.849 30.647,35.724 75.772,35.724 75.772,33.474 91.897,33.474 
				98.272,40.349 98.272,49.724 104.397,49.724 104.397,44.224 115.647,43.974 115.647,46.849 143.772,46.849 152.897,37.224 
				171.522,37.224 173.522,40.099 180.272,36.224 180.272,33.474 198.397,33.474 198.397,36.724 260.522,36.724 260.522,39.349 
				270.397,39.224 270.397,46.724 261.522,46.724 261.397,50.724 270.397,50.724 270.397,74.349 262.022,74.349 262.022,79.099 
				276.522,79.099 276.522,85.224 273.397,86.724 273.272,97.224 258.522,97.224 258.522,102.724 188.647,117.724 188.647,115.224 
				189.897,114.974 189.647,111.474 187.897,111.224 187.897,100.974 198.147,100.974 198.147,94.974 167.522,95.974 
				167.522,119.849 163.647,124.849 102.772,124.849 102.772,117.349 97.397,117.349 97.397,135.849 81.022,135.849 77.772,132.849 
				77.397,127.349 73.397,127.349 66.772,121.724 66.772,113.849 58.897,113.849 58.897,120.724 43.397,120.724 43.397,114.724 
				37.522,114.724 37.522,99.849 22.522,99.849 22.522,93.849 			"/>
		</g>
		<text transform="matrix(1.0804 0 0 1 127.5537 84.6621)" font-family="'MyriadPro-Regular'" font-size="26.1012">A</text>
	</a>
	<a id="Kitchen" xlink:href="#" >
		<rect x="281.522" y="42.515" fill="#FFFFFF" width="20" height="35.167"/>
		
			<text transform="matrix(0.0152 -0.9748 0.9999 0.0156 294.7236 74.7129)" fill="#67D371" font-family="'MyriadPro-BoldCond'" font-size="11">Kitchen</text>
	</a>
	<a id="B" xlink:href="#" >
		<g>
			<polygon fill="#2DBE2C" points="316.397,35.724 316.397,78.724 314.772,80.724 322.084,88.037 327.272,82.849 335.522,82.849 
				335.522,85.724 340.522,85.724 340.522,82.849 356.522,82.849 356.522,86.724 360.397,86.724 360.397,82.599 376.647,82.599 
				376.647,85.974 381.522,85.974 381.522,81.974 416.272,81.974 422.022,87.724 422.022,155.599 417.772,155.599 414.397,158.974 
				422.022,167.474 424.522,165.224 463.397,165.224 463.397,105.599 459.647,105.599 459.647,75.849 471.022,75.849 
				471.022,66.974 473.272,66.974 473.272,63.099 471.147,63.099 471.147,47.224 473.272,47.224 473.272,43.599 470.647,43.599 
				470.647,38.224 463.397,38.224 463.397,36.349 458.772,36.349 458.772,38.724 442.522,38.724 442.522,36.349 438.397,36.349 
				438.397,39.224 422.147,39.224 422.147,36.349 418.397,36.349 418.397,39.099 401.897,39.099 401.897,36.349 398.022,36.349 
				398.022,38.849 382.272,38.849 382.272,36.349 376.522,36.349 376.522,39.224 361.522,39.224 361.522,35.724 355.897,35.724 
				355.897,38.849 341.022,38.849 341.022,35.724 335.522,35.724 335.522,39.224 320.522,39.224 320.522,35.724 			"/>
		</g>
		<text transform="matrix(1.0804 0 0 1 428.9785 72.5146)" font-family="'MyriadPro-Regular'" font-size="26.1012">B</text>
	</a>
	<a id="Chruch" xlink:href="#" >
		<polygon fill="#2DBE2C" points="611.021,299.35 525.271,299.35 525.271,275.1 556.102,275.1 556.102,251.85 611.021,251.85 		"/>
		
			<text transform="matrix(0.9749 0.0034 -0.0035 1 561.7197 280.8779)" fill="#F4F9F4" font-family="'MyriadPro-BoldCond'" font-size="13">Chruch</text>
	</a>
	<a id="Translink" xlink:href="#" >
		<g>
			<rect x="999.021" y="4.682" fill="none" width="24.834" height="36.5"/>
		</g>
		<text transform="matrix(1.1445 0 0 1 907.6475 28.9316)" font-family="'MyriadPro-Bold'" font-size="11.6879">TRANSLINK -&gt;</text>
	</a>
	<a id="H" xlink:href="#" >
		<g>
			<path fill="#2DBE2C" d="M207.105,182.637l-10-11.5c0,0,20.167-14,29-18s50.833-23,50.833-23l1.334-3.5l8.666-1.333l8.334-6.667
				l44.832-7.333c0,0,13.668,0.166,18.334,1c4.666,0.833,40.334,9.833,40.334,9.833s4.666,0.5,6.666,3.333
				c2,2.834,2.5,6.667,2.5,6.667v26.667c0,0-0.334,3.833-2.666,6.5c-2.334,2.666-52.168,14.5-52.168,14.5l1.334,14.834
				l-55.839,8.292l-0.326-7.792l-11.834,5L207.105,182.637z"/>
		</g>
		<text transform="matrix(1.0804 0 0 1 306.9482 164.9492)" font-family="'MyriadPro-Regular'" font-size="26.1012">H</text>
	</a>
	<a id="G" xlink:href="#" >
		<g>
			<path fill="#2DBE2C" d="M229.105,252.734c0.375-0.25,50-26,50-26h27.25l6.375,2.125l18.125,0.125v9.625l8.75-1v32.75
				l-100.625,16.25l-1.75,2.25l-8.125,2.125V252.734L229.105,252.734z"/>
		</g>
		<text transform="matrix(1.0804 0 0 1 278.5225 260.3496)" font-family="'MyriadPro-Regular'" font-size="26.1012">G</text>
	</a>
	<a id="F" xlink:href="#" >
		<g>
			<polygon fill="#2DBE2C" points="353.522,234.1 353.522,284.475 420.897,284.475 420.897,275.6 439.397,275.35 448.897,275.225 
				469.397,275.225 469.397,270.975 465.897,270.85 466.022,228.225 411.459,228.225 411.459,231.975 363.521,231.564 
				363.522,233.975 			"/>
		</g>
		<text transform="matrix(1.0804 0 0 1 401.3125 260.8594)" font-family="'MyriadPro-Regular'" font-size="26.1012">F</text>
	</a>
	<a id="C" xlink:href="#" >
		<g>
			<polygon fill="#2DBE2C" points="552.355,184.839 552.355,220.479 659.021,219.973 671.021,222.5 732.771,220.225 
				732.771,214.918 768.771,214.158 837.521,200.764 830.021,183.828 825.021,183.828 828.021,178.268 820.271,160.575 
				703.021,139.849 671.771,146.421 648.271,159.058 613.346,164.214 609.023,195.96 566.146,195.96 577.355,181.174 			"/>
		</g>
		<text transform="matrix(1.0686 0 0 1 682.5176 195.0352)" font-family="'MyriadPro-Regular'" font-size="26.3888">C</text>
	</a>
	<a id="Indigenous" xlink:href="#" >
		<g>
			<polygon fill="#2DBE2C" points="645.705,132.008 645.705,85.857 732.939,85.664 790.305,85.857 796.969,138.602 685.686,139.849 
				687.686,132.008 			"/>
		</g>
		<text transform="matrix(1.0346 0 0 1 739.0977 113.3496)" font-family="'MyriadPro-Regular'" font-size="10">Indigenous </text>
		<text transform="matrix(1.0346 0 0 1 750.0645 125.3496)" font-family="'MyriadPro-Regular'" font-size="10">Centre</text>
	</a>
	<a id="Library" xlink:href="#" >
		<g>
			<polygon fill="#2DBE2C" points="645.705,132.008 645.705,85.857 574.66,86.164 574.66,123.196 643.262,142.683 			"/>
		</g>
		<text transform="matrix(1 0 0 1 592.4395 113.0068)" font-family="'MyriadPro-Regular'" font-size="12">Library</text>
	</a>
	<a id="D" xlink:href="#" >
		<g>
			<path fill="#2DBE2C" d="M816.521,95.682l17.5,35.25l19.75,1.25v16.5l-9.25,5.25l19,40.501l24-6.5l-4.75-9.751l15-8.25l-5.5-9.75
				l15.25-9c0,0,1.25-1,3-0.25s7.75,8.75,7.75,8.75l57.25-25l14.5,0.5v-5.75l2.75-1.25v-5.5l5-0.75l1.25-7.75l-1.25-3.25l1.25-4
				l-8.75-10l-2.75,2.75h-9.5l-1.75-4H816.521z"/>
		</g>
		<text transform="matrix(1.0804 0 0 1 896 133.8496)" font-family="'MyriadPro-Regular'" font-size="26.1012">D</text>
	</a>
	<a id="E" xlink:href="#" >
		<g>
			<polygon fill="#2DBE2C" points="637.021,267.35 679.689,259.016 678.021,252.35 818.439,227.35 822.355,229.682 825.355,227.35 
				823.689,221.016 834.021,219.682 835.689,225.016 831.021,227.682 838.689,272.682 729.355,292.35 727.355,287.682 
				641.355,287.016 			"/>
		</g>
		<text transform="matrix(1.0804 0 0 1 735.3184 271.8828)" font-family="'MyriadPro-Regular'" font-size="26.1012">E</text>
	</a>
	<a id="ACC" xlink:href="#" >
		<g>
			<polygon fill="#2DBE2C" points="900.855,214.35 873.521,228.018 894.521,271.85 908.689,266.018 912.189,275.018 
				904.355,278.184 904.521,298.35 935.855,298.35 935.855,292.85 967.355,293.018 967.355,281.85 960.521,281.018 960.021,277.684 
				918.689,276.85 912.189,264.018 922.855,258.518 			"/>
			<polygon fill="#2DBE2C" points="1016.521,259.518 1005.355,259.518 1005.355,267.684 994.355,267.684 994.355,289.684 
				992.355,289.684 992.355,296.35 1016.521,296.35 			"/>
			<path fill="#2DBE2C" d="M1015.605,252.35h-10.834v-11.334h-19.666v-60.167h14.331v-8.5h18.169v10.167
				c0,0-0.669,3.833-4.334,6.833c-3.666,3-3.834,4-3.834,4h5.834c0,0-1.166,28.167,0,28.167h4.5v15.168h-4.666L1015.605,252.35z"/>
		</g>
		<text transform="matrix(1.0836 0 0 1 907.7715 251.8496)" font-family="'MyriadPro-Regular'" font-size="14.9015">Accomadation</text>
	</a>
	<a id="Eleven" xlink:href="#" >
		<g>
			<rect x="441.397" y="275.883" fill="#F5821F" width="30" height="13.184"/>
		</g>
		<text transform="matrix(0.9749 0 0 1 443.7266 284.832)" fill="#F9F9F9" font-family="'MyriadPro-BoldCond'" font-size="9">7Eleven</text>
	</a>
	<a id="Dugout" xlink:href="#" >
		<g>
			<rect x="525.271" y="251.85" fill="#6F4E37" width="30.829" height="23.25"/>
		</g>
		
			<text transform="matrix(-0.9747 -0.0188 0.0193 -0.9998 552.3916 260.2949)" fill="#FFFFFF" font-family="'MyriadPro-BoldCond'" font-size="9">DugOut</text>
	</a>
	<a id="Espresso_1_" xlink:href="#" >
		<g id="Espresso">
			<polygon fill="#800000" points="551.82,220.6 535.553,220.6 535.553,187.349 551.82,185.349 			"/>
		</g>
		
			<text transform="matrix(-0.0363 0.9742 -0.9993 -0.0373 541.6865 190.5151)" fill="#FFFFFF" font-family="'MyriadPro-BoldCond'" font-size="9">Espresso</text>
	</a>
	<g id="Learning">
		<polyline fill="#2DBE2C" stroke="#FFFAFA" stroke-width="0.5" stroke-miterlimit="10" points="730.939,85.664 643.705,85.857 
			643.705,133.008 687.322,133.849 701.855,123.609 736.189,114.849 730.939,85.664 		"/>
		<text transform="matrix(1.0346 0 0 1 662.3574 103.666)" font-family="'MyriadPro-Regular'" font-size="10">Learning </text>
		<text transform="matrix(1.0346 0 0 1 668.0586 115.666)" font-family="'MyriadPro-Regular'" font-size="10">Centre</text>
	</g>
	<a id="Merlo" xlink:href="#" >
		<g>
			<polygon fill="#6A78FF" points="553.727,118.665 534.666,116.706 534.666,85.683 553.727,85.683 			"/>
		</g>
		
			<text transform="matrix(-0.0363 1.0173 -0.9992 -0.0389 541.8848 88.5581)" fill="#FFFFFF" font-family="'MyriadPro-BoldCond'" font-size="9.9996">Merlo</text>
	</a>
	<a id="UCHub" xlink:href="#" >
		<g>
			<polygon fill="#F40000" points="574.66,86.164 576.369,123.609 554.541,118.343 553.717,85.664 			"/>
		</g>
		
			<text transform="matrix(-0.0363 1.0173 -0.9992 -0.0389 563.0371 88.7539)" fill="#FFFFFF" font-family="'MyriadPro-BoldCond'" font-size="9.9986">UCHUB</text>
	</a>
	<a id="Centre" xlink:href="#" >
		<polygon fill="#FFFFFF" stroke="#2DBE2C" stroke-width="1.5" stroke-miterlimit="10" points="609.023,197.349 566.146,197.349 
			577.355,181.724 601.271,178.599 604.021,166.349 613.346,164.948 		"/>
		
			<text transform="matrix(-0.9746 -0.0224 0.023 -0.9997 606.9229 183.4478)" fill="#67D371" font-family="'MyriadPro-BoldCond'" font-size="10.9996">Centre</text>
	</a>
</g>
<g id="Portals">
	<line id="Door.3.floor2" fill="none" stroke="#FF00FF" x1="284.522" y1="185.849" x2="271.342" y2="186.538"/>
	<line id="Door.2.floor2" fill="none" stroke="#FF00FF" x1="362.522" y1="156.849" x2="362.522" y2="146.561"/>
	<line id="Door.1.floor2" fill="none" stroke="#FF00FF" x1="360.522" y1="133.849" x2="351.022" y2="139.849"/>
	<line id="Door.3.floor2_1_" fill="none" stroke="#FF00FF" x1="310.916" y1="195.035" x2="306.949" y2="199.349"/>
	<line id="Door.2.floor2_1_" fill="none" stroke="#FF00FF" x1="357.32" y1="178.791" x2="355.522" y2="172.497"/>
	<line id="Door.1.floor2_1_" fill="none" stroke="#FF00FF" x1="361.689" y1="113.007" x2="361.117" y2="123.032"/>
</g>
<g id="Doors">
	<line id="ACC_1_" fill="none" stroke="#000000" x1="1006.439" y1="242.35" x2="1015.439" y2="251.35"/>
	<line id="Translink_1_" fill="none" stroke="#000000" x1="1005.439" y1="34.349" x2="1014.439" y2="43.349"/>
	<line id="B_1_" fill="none" stroke="#000000" x1="423.439" y1="95.349" x2="432.439" y2="104.349"/>
	<line id="A_1_" fill="none" stroke="#000000" x1="25.439" y1="68.349" x2="15.939" y2="76.849"/>
	<line id="F_1_" fill="none" stroke="#000000" x1="411.439" y1="232.35" x2="420.439" y2="241.35"/>
	<line id="G_1_" fill="none" stroke="#000000" x1="291.439" y1="236.35" x2="300.439" y2="227.35"/>
	<line id="UCHub_1_" fill="none" stroke="#000000" x1="570.439" y1="109.349" x2="561.439" y2="118.349"/>
	<line id="Centre_1_" fill="none" stroke="#000000" x1="609.439" y1="186.349" x2="600.439" y2="177.349"/>
	<line id="Merlo_1_" fill="none" stroke="#000000" x1="547.439" y1="119.349" x2="538.439" y2="110.349"/>
	<line id="H_1_" fill="none" stroke="#000000" x1="298.439" y1="199.349" x2="289.522" y2="189.849"/>
	<line id="E_1_" fill="none" stroke="#000000" x1="743.439" y1="241.35" x2="752.439" y2="250.35"/>
	<line id="Eleven_1_" fill="none" stroke="#000000" x1="456.439" y1="279.35" x2="465.439" y2="288.35"/>
	<line id="A_2_" fill="none" stroke="#000000" x1="171.439" y1="86.349" x2="180.439" y2="95.349"/>
	<line id="C_1_" fill="none" stroke="#000000" x1="732.939" y1="218.85" x2="721.395" y2="210.35"/>
	<line id="Dugout_1_" fill="none" stroke="#000000" x1="535.439" y1="266.35" x2="526.439" y2="257.35"/>
	<line id="Espresso_2_" fill="none" stroke="#000000" x1="547.439" y1="196.349" x2="538.439" y2="187.349"/>
	<line id="Learning_1_" fill="none" stroke="#000000" x1="675.48" y1="123.557" x2="666" y2="133"/>
	<line id="D_1_" fill="none" stroke="#000000" x1="918.438" y1="141.349" x2="909.438" y2="150.349"/>
	<line id="Chruch_1_" fill="none" stroke="#000000" x1="578.439" y1="298.35" x2="569.439" y2="289.35"/>
	<line id="H_3_" fill="none" stroke="#000000" x1="355.522" y1="125.849" x2="358.439" y2="112.304"/>
	<line id="Indigenous_1_" fill="none" stroke="#000000" x1="696.939" y1="132.099" x2="686" y2="136"/>
	<line id="Library_1_" fill="none" stroke="#000000" x1="643" y1="134" x2="634.521" y2="132.099"/>
	<line id="H_2_" fill="none" stroke="#000000" x1="353.522" y1="179.849" x2="353.522" y2="161.849"/>
	<line id="Kitchen_1_" fill="none" stroke="#000000" x1="287.022" y1="68.015" x2="296" y2="77"/>
</g>
<g id="Paths">
	<line fill="none" stroke="#FF0000" x1="1024.521" y1="317.371" x2="1024.521" y2="251.35"/>
	<line fill="none" stroke="#FF0000" x1="465.439" y1="313.891" x2="511.451" y2="313.891"/>
	<line fill="none" stroke="#FF0000" x1="822.916" y1="145.057" x2="685" y2="140"/>
	<line fill="none" stroke="#FF0000" x1="851.256" y1="207.787" x2="822.916" y2="145.057"/>
	<line fill="none" stroke="#FF0000" x1="822.916" y1="145.057" x2="795.092" y2="58.849"/>
	<line fill="none" stroke="#FF0000" x1="511.45" y1="104.637" x2="511.451" y2="58.849"/>
	<line fill="none" stroke="#FF0000" x1="795.092" y1="58.849" x2="511.451" y2="58.849"/>
	<line fill="none" stroke="#FF0000" x1="743.439" y1="225.971" x2="511.451" y2="228.225"/>
	<line fill="none" stroke="#FF0000" x1="743.439" y1="225.971" x2="732.939" y2="218.85"/>
	<line fill="none" stroke="#FF0000" x1="743.439" y1="241.35" x2="743.439" y2="225.971"/>
	<line fill="none" stroke="#FF0000" x1="11.23" y1="313.891" x2="7.682" y2="123.752"/>
	<line fill="none" stroke="#FF0000" x1="465.439" y1="313.891" x2="11.23" y2="313.891"/>
	<line fill="none" stroke="#FF0000" x1="407.939" y1="223.717" x2="411.439" y2="95.937"/>
	<line fill="none" stroke="#FF0000" x1="15.939" y1="76.849" x2="6.939" y2="76.849"/>
	<line fill="none" stroke="#FF0000" x1="7.682" y1="123.752" x2="6.939" y2="76.849"/>
	<line fill="none" stroke="#FF0000" x1="180.439" y1="185.515" x2="7.682" y2="123.752"/>
	<line fill="none" stroke="#FF0000" x1="180.439" y1="185.515" x2="180.439" y2="133.849"/>
	<line fill="none" stroke="#FF0000" x1="298.439" y1="210.318" x2="180.439" y2="185.515"/>
	<line fill="none" stroke="#FF0000" x1="298.439" y1="210.318" x2="298.439" y2="199.349"/>
	<line fill="none" stroke="#FF0000" x1="300.439" y1="227.35" x2="298.439" y2="210.318"/>
	<line fill="none" stroke="#FF0000" x1="295.939" y1="101.599" x2="296" y2="77"/>
	<line fill="none" stroke="#FF0000" x1="180.439" y1="133.849" x2="295.939" y2="101.599"/>
	<line fill="none" stroke="#FF0000" x1="180.439" y1="133.849" x2="180.439" y2="95.349"/>
	<line fill="none" stroke="#FF0000" x1="353.689" y1="101.599" x2="295.939" y2="101.599"/>
	<line fill="none" stroke="#FF0000" x1="361.117" y1="217.078" x2="308.878" y2="211.445"/>
	<line fill="none" stroke="#FF0000" x1="411.439" y1="232.35" x2="407.939" y2="223.717"/>
	<line fill="none" stroke="#FF0000" x1="511.451" y1="228.225" x2="407.939" y2="223.717"/>
	<line fill="none" stroke="#FF0000" x1="511.45" y1="256.016" x2="511.451" y2="228.225"/>
	<line fill="none" stroke="#FF0000" x1="465.439" y1="313.891" x2="465.439" y2="288.35"/>
	<line fill="none" stroke="#FF0000" x1="511.451" y1="228.225" x2="511.451" y2="187.349"/>
	<line fill="none" stroke="#FF0000" x1="511.451" y1="187.349" x2="538.439" y2="187.349"/>
	<line fill="none" stroke="#FF0000" x1="511.451" y1="187.349" x2="511.45" y2="104.637"/>
	<line fill="none" stroke="#FF0000" x1="547.439" y1="132.349" x2="511.45" y2="104.637"/>
	<line fill="none" stroke="#FF0000" x1="547.439" y1="132.349" x2="547.439" y2="119.349"/>
	<line fill="none" stroke="#FF0000" x1="563.043" y1="133.849" x2="547.439" y2="132.349"/>
	<line fill="none" stroke="#FF0000" x1="563.043" y1="133.849" x2="561.439" y2="118.349"/>
	<line fill="none" stroke="#FF0000" x1="600.439" y1="157.117" x2="563.043" y2="133.849"/>
	<line fill="none" stroke="#FF0000" x1="600.439" y1="177.349" x2="600.439" y2="157.117"/>
	<line fill="none" stroke="#FF0000" x1="650" y1="147" x2="600.439" y2="157.117"/>
	<line fill="none" stroke="#FF0000" x1="526.439" y1="257.35" x2="511.45" y2="256.016"/>
	<line fill="none" stroke="#FF0000" x1="511.451" y1="313.891" x2="511.45" y2="256.016"/>
	<line fill="none" stroke="#FF0000" x1="578.439" y1="313.891" x2="511.451" y2="313.891"/>
	<line fill="none" stroke="#FF0000" x1="578.439" y1="313.891" x2="578.439" y2="298.35"/>
	<line fill="none" stroke="#FF0000" x1="851.256" y1="207.787" x2="743.439" y2="225.971"/>
	<line fill="none" stroke="#FF0000" x1="851.256" y1="207.787" x2="909.438" y2="188.949"/>
	<line fill="none" stroke="#FF0000" x1="909.438" y1="188.949" x2="909.438" y2="150.349"/>
	<line fill="none" stroke="#FF0000" x1="1024.521" y1="148.483" x2="909.438" y2="188.949"/>
	<line fill="none" stroke="#FF0000" x1="1024.521" y1="251.35" x2="1024.521" y2="148.483"/>
	<line fill="none" stroke="#FF0000" x1="1015.439" y1="251.35" x2="1024.521" y2="251.35"/>
	<line fill="none" stroke="#FF0000" x1="1024.521" y1="58.849" x2="1024.521" y2="148.483"/>
	<line fill="none" stroke="#FF0000" x1="1014.439" y1="58.849" x2="795.092" y2="58.849"/>
	<line fill="none" stroke="#FF0000" x1="1014.439" y1="58.849" x2="1014.439" y2="43.349"/>
	<line fill="none" stroke="#FF0000" x1="1024.521" y1="58.849" x2="1014.439" y2="58.849"/>
	<line fill="none" stroke="#FF0000" x1="511.45" y1="104.637" x2="432.439" y2="104.349"/>
	<line fill="none" stroke="#FF0000" x1="423.439" y1="95.349" x2="411.439" y2="95.937"/>
	<line fill="none" stroke="#FF0000" x1="1024.521" y1="317.371" x2="578.439" y2="313.891"/>
	<line fill="none" stroke="#FF0000" x1="407.939" y1="223.717" x2="368.692" y2="218.152"/>
	<line fill="none" stroke="#FF0000" x1="353.522" y1="179.849" x2="361.117" y2="217.078"/>
	<line fill="none" stroke="#FF0000" x1="411.439" y1="95.937" x2="367.385" y2="100.256"/>
	<line fill="none" stroke="#FF0000" x1="358.439" y1="112.304" x2="353.689" y2="101.599"/>
	<line fill="none" stroke="#FF0000" x1="284.522" y1="185.849" x2="289.522" y2="189.849"/>
	<line fill="none" stroke="#FF0000" x1="362.522" y1="156.849" x2="353.522" y2="161.849"/>
	<line fill="none" stroke="#FF0000" x1="355.522" y1="125.849" x2="360.522" y2="133.849"/>
	<line fill="none" stroke="#FF0000" x1="308.878" y1="211.445" x2="298.439" y2="210.318"/>
	<line fill="none" stroke="#FF0000" x1="361.117" y1="217.078" x2="368.692" y2="218.152"/>
	<line fill="none" stroke="#FF0000" x1="353.689" y1="101.599" x2="367.385" y2="100.256"/>
	<line fill="none" stroke="#FF0000" x1="650" y1="147" x2="643" y2="134"/>
	<line fill="none" stroke="#FF0000" x1="650" y1="147" x2="666" y2="144"/>
	<line fill="none" stroke="#FF0000" x1="666" y1="144" x2="666" y2="133"/>
	<line fill="none" stroke="#FF0000" x1="666" y1="144" x2="685" y2="140"/>
	<line fill="none" stroke="#FF0000" x1="685" y1="140" x2="686" y2="136"/>
	<line fill="none" stroke="#FF0000" x1="361.689" y1="113.007" x2="367.385" y2="100.256"/>
	<line fill="none" stroke="#FF0000" x1="357.32" y1="178.791" x2="368.692" y2="218.152"/>
	<line fill="none" stroke="#FF0000" x1="308.878" y1="211.445" x2="306.949" y2="199.349"/>
</g>
</svg>
