<?xml version="1.0" encoding="utf-8"?>
<!-- Generator: Adobe Illustrator 16.0.0, SVG Export Plug-In . SVG Version: 6.00 Build 0)  -->
<!DOCTYPE svg PUBLIC "-//W3C//DTD SVG 1.1//EN" "http://www.w3.org/Graphics/SVG/1.1/DTD/svg11.dtd">
<svg version="1.1" id="Layer_1" xmlns="http://www.w3.org/2000/svg" xmlns:xlink="http://www.w3.org/1999/xlink" x="0px" y="0px"
	 width="600px" height="280px" viewBox="0 0 600 280" style="enable-background:new 0 0 600 280;" xml:space="preserve">
<g id="Base">
	<polygon id="Circulation" style="fill:#F2F2F2;stroke:#000000;stroke-width:2;" points="133.258,10.112 404.766,10.112 
		404.777,5.087 437.553,5.087 437.83,10.112 483.299,10.112 483.299,263.5 430.301,263.572 430.301,277.197 376.656,277.197 
		375.363,263.639 236.829,263.738 237.051,277.197 193.101,277.197 192.455,263.5 133.258,263.5 	"/>
	<g id="Elevator_2_">
		<rect id="Elevator" x="255.318" y="85.856" style="fill:#B3B3B3;stroke:#000000;" width="34.318" height="102.966"/>
		<text transform="matrix(0.0097 0.9054 -1 0.0087 271.002 122.605)" style="font-family:'MyriadPro-Regular'; font-size:7.757;">ELEVATOR</text>
	</g>
	<polygon id="Reception" style="fill:#C69C6D;stroke:#000000;" points="443.264,144.855 443.305,142.193 447.088,142.24 
		447.289,128.926 443.508,128.879 443.549,126.217 451.109,126.311 450.828,144.951 	"/>
	
		<text transform="matrix(1.1036 0.036 -0.0398 0.9992 323.1465 118.8481)" style="font-family:'MyriadPro-Regular'; font-size:7.0231;">STAIRS</text>
	<g id="Stairs_1_">
		<polygon id="Stairs" style="fill:#B3B3B3;stroke:#000000;" points="363.23,99.891 363.246,129.582 314.232,129.6 314.24,144.445 
			363.252,144.428 363.266,174.119 289.749,174.146 289.714,99.917 		"/>
		<line style="fill:none;stroke:#000000;" x1="350.992" y1="129.586" x2="350.979" y2="99.896"/>
		<line style="fill:none;stroke:#000000;" x1="338.738" y1="129.592" x2="338.725" y2="99.899"/>
		<line style="fill:none;stroke:#000000;" x1="326.488" y1="129.596" x2="326.473" y2="99.904"/>
		<line style="fill:none;stroke:#000000;" x1="314.232" y1="129.6" x2="314.221" y2="99.907"/>
		<polyline style="stroke:#000000;" points="301.994,159.295 351.006,159.275 338.754,166.705 338.748,151.861 351.006,159.275 		
			"/>
	</g>
	<text transform="matrix(1 0 0 1 191.0913 142.1426)" style="fill:#727272; font-family:'MyriadPro-BoldCond'; font-size:20;">Floor 1</text>
	<text transform="matrix(1 0 0 1 367.5527 118.8477)" style="fill:#727272; font-family:'MyriadPro-BoldCond'; font-size:20;">Floor 1</text>
</g>
<g id="Rooms">
	<a id="H1Male" xlink:href="#" >
		<g>
			<polygon style="fill:#E6E6E6;" points="338.707,85.142 363.098,84.834 362.684,100.002 339.158,100.311 			"/>
			<path d="M362.832,85.156l0.85,14.583l-24.688-0.335l-0.414-14.585L362.832,85.156 M363.363,84.511l-24.955,0.37l0.481,15.751
				l24.521-0.369L363.363,84.511L363.363,84.511z"/>
		</g>
		
			<text transform="matrix(0.7376 0.0361 -0.0266 0.9996 346.5273 90.8096)" style="font-family:'MyriadPro-Regular'; font-size:5.2662;">Male Toilet</text>
		
			<text transform="matrix(0.7376 0.0361 -0.0266 0.9996 346.3604 97.127)" style="font-family:'MyriadPro-Regular'; font-size:5.2662;">Toilet</text>
	</a>
	<a id="H1UniSex" xlink:href="#" >
		<g>
			<polygon style="fill:#E6E6E6;" points="289.559,85.142 316.139,84.834 315.689,100.002 290.049,100.311 			"/>
			<path d="M315.852,85.156l0.927,14.583l-26.907-0.335l-0.454-14.585L315.852,85.156 M316.43,84.511l-27.197,0.37l0.527,15.751
				l26.729-0.369L316.43,84.511L316.43,84.511z"/>
		</g>
		
			<text transform="matrix(0.8038 0.0361 -0.029 0.9996 297.1338 90.6167)" style="font-family:'MyriadPro-Regular'; font-size:4.6805;">UNISEX</text>
		
			<text transform="matrix(0.8038 0.0361 -0.029 0.9996 297.376 96.2451)" style="font-family:'MyriadPro-Regular'; font-size:4.6805;">TOILET</text>
	</a>
	<a id="H1Female" xlink:href="#" >
		<g>
			<polygon style="fill:#E6E6E6;" points="326.027,174.279 362.533,173.973 361.914,189.141 326.701,189.447 			"/>
			<path d="M362.137,174.295l1.271,14.582l-36.955-0.334l-0.621-14.588L362.137,174.295 M362.932,173.65l-37.354,0.369l0.725,15.748
				l36.707-0.367L362.932,173.65L362.932,173.65z"/>
		</g>
		
			<text transform="matrix(1.1036 0.036 -0.0398 0.9992 333.6416 180.248)" style="font-family:'MyriadPro-Regular'; font-size:4.6821;">FEMALE</text>
		
			<text transform="matrix(1.1036 0.036 -0.0398 0.9992 334.6387 185.9004)" style="font-family:'MyriadPro-Regular'; font-size:4.6821;">TOILET</text>
	</a>
	<a id="H1Comm" xlink:href="#" >
		<g>
			<polygon style="fill:#E6E6E6;" points="289.833,174.279 326.34,173.973 325.721,189.141 290.507,189.447 			"/>
			<path d="M325.943,174.295l1.27,14.582l-36.956-0.334l-0.623-14.588L325.943,174.295 M326.738,173.65l-37.354,0.369l0.725,15.748
				l36.708-0.367L326.738,173.65L326.738,173.65z"/>
		</g>
		
			<text transform="matrix(1.1036 0.036 -0.0398 0.9992 301.71 180.2949)" style="font-family:'MyriadPro-Regular'; font-size:4.6821;">Comm</text>
		
			<text transform="matrix(1.1036 0.036 -0.0398 0.9992 303.0264 185.959)" style="font-family:'MyriadPro-Regular'; font-size:4.6821;">Store</text>
	</a>
	<a id="H1Lobby" xlink:href="#" >
		<g>
			<polygon style="fill:#E6E6E6;" points="460.695,148.545 460.357,122.799 477.162,122.618 477.496,148.365 			"/>
			<path d="M460.686,123.088l16.156-0.173l0.33,25.161l-16.158,0.174L460.686,123.088 M460.031,122.512l0.344,26.33l17.451-0.186
				l-0.346-26.333L460.031,122.512L460.031,122.512z"/>
		</g>
		<text transform="matrix(0.0097 0.9054 -1 0.0087 466.0762 126.2021)" style="font-family:'MyriadPro-Regular'; font-size:7.757;">LOBBY</text>
	</a>
	<a id="RH1033_1_" xlink:href="#" >
		<g>
			<path style="fill:#E6E6E6;" d="M178.437,202.756l0.247,22.229c-1.265,0.158-5.804,1.203-5.727,8.146l0.004,0.426l5.818-0.053
				l0.331,29.893l-45.885,0.416l-0.672-60.637L178.437,202.756z"/>
			<path d="M133.543,263.381l-0.663-59.785l45.239-0.412l0.238,21.424c-1.634,0.291-5.798,1.699-5.723,8.523l0.009,0.854
				l0.647-0.004l5.089-0.047h0.081l0.322,29.034L133.543,263.381 M132.906,264.24l46.533-0.42l-0.341-30.748c0,0,0,0-5.817,0.053
				c-0.084-7.686,5.731-7.74,5.731-7.74l-0.256-23.061l-46.533,0.424L132.906,264.24L132.906,264.24z"/>
		</g>
		
			<text id="RH1033" transform="matrix(1.1045 0 0 1 144.8203 233.1279)" style="font-family:'MyriadPro-Regular'; font-size:7.0222;">RH1033</text>
	</a>
	<a id="RH1019" xlink:href="#" >
		<g>
			<path style="fill:#E6E6E6;" d="M404.803,51.894l-25.549,0.004c-0.166-1.147-1.324-5.267-9.299-5.265h-0.49l0.002,5.267
				l-34.354,0.005l-0.021-41.548l69.691-0.012L404.803,51.894z"/>
			<path d="M335.584,10.65l68.709-0.012l0.018,40.962l-24.616,0.004c-0.314-1.482-1.896-5.266-9.738-5.266h-0.98l0.003,0.584v4.609
				v0.073l-33.371,0.005L335.584,10.65 M334.6,10.065l0.021,42.133l35.338-0.006c0,0,0,0-0.002-5.267
				c8.834-0.001,8.836,5.266,8.836,5.266l26.502-0.005l-0.018-42.132L334.6,10.065L334.6,10.065z"/>
		</g>
		<text transform="matrix(1.4204 0 0 1 354.7412 31.126)" style="font-family:'MyriadPro-Regular'; font-size:7.0222;">RH1019</text>
	</a>
	<a id="RH1018" xlink:href="#" >
		<g>
			<path style="fill:#E6E6E6;" d="M265.853,10.085l69.686,0.535l-0.898,41.545l-25.547-0.197c-0.143-1.146-1.207-5.276-9.184-5.337
				l-0.49-0.004l-0.113,5.267l-34.351-0.264L265.853,10.085z"/>
			<path d="M334.156,51.871l-24.619-0.191c-0.283-1.484-1.777-5.281-9.621-5.34l-0.981-0.008l-0.012,0.585l-0.1,4.608l-0.004,0.073
				l-33.369-0.256l0.886-40.96l68.704,0.529L334.156,51.871 M335.123,52.463l0.912-42.13L265.368,9.79l-0.912,42.129l35.333,0.272
				c0,0,0,0,0.114-5.267c8.833,0.068,8.718,5.334,8.718,5.334L335.123,52.463L335.123,52.463z"/>
		</g>
		<text transform="matrix(1.4204 0 0 1 288.0137 30.6934)" style="font-family:'MyriadPro-Regular'; font-size:7.0222;">RH1018</text>
	</a>
	<a id="RH1008-11" xlink:href="#" >
		<g>
			<path style="fill:#E6E6E6;" d="M132.347,116.165V10.222h45.889v43.077c-1.266,0.255-5.817-2.231-5.817,9.893v0.747h5.817v52.226
				H132.347L132.347,116.165z"/>
			<path d="M177.913,10.968v37.424c-1.637,0.48-5.816,2.878-5.816,14.8v1.493h0.646h5.09h0.081v50.732H132.67V10.968H177.913
				 M178.559,9.476h-46.535v107.435h46.535V63.194c0,0,0,0-5.816,0c0-13.429,5.816-8.481,5.816-8.481V9.476L178.559,9.476z"/>
		</g>
		<text transform="matrix(1.1045 0 0 1 136.2979 47.9072)" style="font-family:'MyriadPro-Regular'; font-size:7.0222;">RH1008-11</text>
	</a>
	<a id="RH1013" xlink:href="#" >
		<g>
			<path style="fill:#E6E6E6;" d="M237.43,221.77l25.205,0.096c0.154,1.146,1.251,5.271,9.121,5.301l0.484,0.002l0.055-5.27
				l33.896,0.127l-0.424,41.549l-68.754-0.256L237.43,221.77z"/>
			<path d="M305.283,263.277l-67.788-0.25l0.416-40.961l24.288,0.086c0.296,1.482,1.816,5.273,9.553,5.303l0.969,0.006l0.005-0.586
				l0.048-4.605l0.001-0.074l32.924,0.123L305.283,263.277 M306.248,263.867l0.428-42.133l-34.863-0.129c0,0,0,0-0.054,5.266
				c-8.715-0.031-8.662-5.297-8.662-5.297l-26.147-0.098l-0.428,42.133L306.248,263.867L306.248,263.867z"/>
		</g>
		<text transform="matrix(1.6549 0 0 1 255.3159 248.1729)" style="font-family:'MyriadPro-Regular'; font-size:7.0222;">RH1013</text>
	</a>
	<a id="RH1012" xlink:href="#" >
		<g>
			<path style="fill:#E6E6E6;" d="M375.104,263.488l-69.19-0.086l0.141-41.547l25.367,0.029c0.16,1.146,1.295,5.27,9.213,5.276
				h0.486l0.02-5.269l34.109,0.045L375.104,263.488z"/>
			<path d="M306.537,222.148l24.443,0.027c0.309,1.483,1.86,5.27,9.646,5.276l0.975,0.002l0.005-0.584l0.018-4.606v-0.072
				l33.135,0.041l-0.141,40.963l-68.221-0.086L306.537,222.148 M305.564,221.561l-0.146,42.137l70.17,0.088l0.146-42.135
				l-35.086-0.045c0,0,0,0-0.019,5.268c-8.771-0.01-8.754-5.275-8.754-5.275L305.564,221.561L305.564,221.561z"/>
		</g>
		<text transform="matrix(1.6654 0 0 1 320.8965 248.7578)" style="font-family:'MyriadPro-Regular'; font-size:7.0222;">RH1012</text>
	</a>
	<a id="RH1025" xlink:href="#" >
		<g>
			<path style="fill:#E6E6E6;" d="M483.441,264.779l-45.892-0.328l0.133-15.23c1.271-0.088,5.822-0.744,5.863-5.5l0.004-0.293
				l-5.813-0.041l0.178-20.479l45.887,0.324L483.441,264.779z"/>
			<path d="M438.234,223.201l45.239,0.32l-0.354,40.963l-45.24-0.324l0.127-14.674c1.642-0.178,5.828-1.09,5.867-5.764l0.006-0.584
				l-0.646-0.01l-5.089-0.031l-0.081-0.002L438.234,223.201 M437.594,222.611l-0.184,21.064c0,0,0,0,5.815,0.041
				c-0.047,5.268-5.86,5.225-5.86,5.225l-0.14,15.801l46.533,0.332l0.365-42.133L437.594,222.611L437.594,222.611z"/>
		</g>
		<text transform="matrix(1.1045 0 0 1 451.1104 245.7441)" style="font-family:'MyriadPro-Regular'; font-size:7.0222;">RH1025</text>
	</a>
	<a id="RH1026" xlink:href="#" >
		<g>
			<path style="fill:#E6E6E6;" d="M483.395,10.153l-0.846,41.54l-45.881-0.766l0.309-15.228c1.271-0.079,5.832-0.691,5.933-5.445
				l0.006-0.293l-5.814-0.097l0.416-20.479L483.395,10.153z"/>
			<path d="M436.996,50.641l0.301-14.675c1.639-0.162,5.838-1.031,5.937-5.707l0.01-0.585l-0.646-0.011l-5.09-0.084l-0.08-0.002
				l0.404-19.893l45.234,0.755l-0.834,40.957L436.996,50.641 M436.338,51.215l46.527,0.776l0.856-42.126l-46.524-0.776
				l-0.433,21.063c0,0,0,0,5.814,0.097c-0.107,5.266-5.922,5.167-5.922,5.167L436.338,51.215L436.338,51.215z"/>
		</g>
		<text transform="matrix(1.1045 0 0 1 451.1104 30.6934)" style="font-family:'MyriadPro-Regular'; font-size:7.0222;">RH1026</text>
	</a>
	<a id="RH1017" xlink:href="#" >
		<g>
			<path style="fill:#E6E6E6;" d="M266.887,51.674l-26.193-0.114c-0.153-1.147-1.256-5.272-9.231-5.308l-0.49-0.002l-0.067,5.267
				l-33.062-0.154l-0.125-41.546l69.688,0.311L266.887,51.674z"/>
			<path d="M197.929,10.697l68.709-0.279l-0.514,40.962l-24.619-0.109c-0.297-1.484-1.828-5.275-9.67-5.311l-0.98-0.004
				l-0.008,0.586l-0.058,4.608v0.073l-33.373-0.149l0.514-40.962 M196.955,10.107l-0.53,41.547l35.336,0.157c0,0,0,0,0.067-5.267
				c8.833,0.04,8.768,5.306,8.768,5.306l26.501,0.118l0.53-42.132L196.955,10.107L196.955,10.107z"/>
		</g>
		<text transform="matrix(1.4204 0 0 1 217.207 30.6934)" style="font-family:'MyriadPro-Regular'; font-size:7.0222;">RH1017</text>
	</a>
	<a id="RH1035_1_" xlink:href="#" >
		<g>
			<path style="fill:#E6E6E6;" d="M132.347,203.145v-86.846h45.889v35.313c-1.266,0.209-5.817-1.828-5.817,8.111v0.61h5.817v42.812
				H132.347z"/>
			<path d="M177.913,116.909v30.681c-1.637,0.393-5.816,2.355-5.816,12.131v1.223h0.646h5.09h0.081v41.592H132.67V116.91
				L177.913,116.909 M178.559,115.686h-46.535v88.07h46.535v-44.033c0,0,0,0-5.816,0c0-11.008,5.816-6.951,5.816-6.951V115.686
				L178.559,115.686z"/>
		</g>
		
			<text id="RH1035" transform="matrix(1.1045 0 0 1 141.4688 159.7227)" style="font-family:'MyriadPro-Regular'; font-size:7.0222;">RH1035</text>
	</a>
	<a id="H1Store" xlink:href="#" >
		<g>
			<polygon style="fill:#E6E6E6;" points="316.34,85.134 338.441,84.827 338.066,99.994 316.748,100.303 			"/>
			<path d="M338.201,85.148l0.77,14.584l-22.373-0.335l-0.379-14.585L338.201,85.148 M338.682,84.504l-22.61,0.369l0.438,15.752
				l22.222-0.369L338.682,84.504L338.682,84.504z"/>
		</g>
		
			<text transform="matrix(0.6685 0.0361 -0.0241 0.9997 322.3594 93.4492)" style="font-family:'MyriadPro-Regular'; font-size:7.0196;">Store</text>
	</a>
</g>
<g id="Portals">
	<line id="Elev.1.floor3" style="fill:none;stroke:#FF00FF;" x1="263.15" y1="159.295" x2="255.318" y2="135.582"/>
	<line id="Stair.1.floor3" style="fill:none;stroke:#FF00FF;" x1="363.9" y1="115.103" x2="335.092" y2="115.103"/>
	<line id="Door.3.floor1" style="fill:none;stroke:#FF00FF;" x1="231.234" y1="281" x2="215.723" y2="277.197"/>
	<line id="Door.2.floor1" style="fill:none;stroke:#FF00FF;" x1="427.959" y1="281" x2="412.688" y2="277.197"/>
	<line id="Door.1.floor1" style="fill:none;stroke:#FF00FF;" x1="436.039" y1="0.113" x2="420.605" y2="5.087"/>
</g>
<g id="Doors">
	<line id="RH1008-11_1_" style="fill:none;stroke:#00FF00;" x1="172.743" y1="62.728" x2="164.017" y2="72.383"/>
	<line id="RH1017_1_" style="fill:none;stroke:#00FF00;" x1="232.563" y1="47.074" x2="225.13" y2="41.514"/>
	<line id="RH1018_1_" style="fill:none;stroke:#00FF00;" x1="293.604" y1="40.198" x2="299.421" y2="46.927"/>
	<line id="H1UniSex_1_" style="fill:none;stroke:#00FF00;" x1="301.994" y1="93.157" x2="307.176" y2="85.55"/>
	<line id="H1Male_1_" style="fill:none;stroke:#00FF00;" x1="342.309" y1="93.157" x2="347.643" y2="85.253"/>
	<line id="RH1013_1_" style="fill:none;stroke:#00FF00;" x1="266.218" y1="233.979" x2="271.755" y2="227.164"/>
	<line id="H1Female_1_" style="fill:none;stroke:#00FF00;" x1="351.006" y1="181.709" x2="344.281" y2="189.447"/>
	<line id="RH1012_1_" style="fill:none;stroke:#00FF00;" x1="339.365" y1="227.164" x2="348.969" y2="233.016"/>
	<line id="RH1035_2_" style="fill:none;stroke:#00FF00;" x1="172.743" y1="159.723" x2="168.057" y2="169.523"/>
	<line id="RH1033_2_" style="fill:none;stroke:#00FF00;" x1="172.743" y1="233.016" x2="168.057" y2="243.842"/>
	<line id="H1Lobby_1_" style="fill:none;stroke:#00FF00;" x1="460.031" y1="140.559" x2="450.969" y2="135.582"/>
	<line id="RH1025_1_" style="fill:none;stroke:#00FF00;" x1="451.109" y1="240.623" x2="443.879" y2="243.139"/>
	<line id="RH1026_1_" style="fill:none;stroke:#00FF00;" x1="451.109" y1="37.272" x2="443.23" y2="30.26"/>
	<line id="RH1019_1_" style="fill:none;stroke:#00FF00;" x1="370.516" y1="46.927" x2="370.852" y2="40.198"/>
	<line id="H1Comm_1_" style="fill:none;stroke:#00FF00;" x1="314.221" y1="181.709" x2="306.531" y2="184.445"/>
	<line id="H1Store_1_" style="fill:none;stroke:#00FF00;" x1="327.525" y1="90.876" x2="331.088" y2="84.504"/>
</g>
<g id="Paths">
	<line style="fill:none;stroke:#00FFFF;" x1="215.723" y1="206.391" x2="215.723" y2="233.979"/>
	<line style="fill:none;stroke:#00FFFF;" x1="215.723" y1="206.391" x2="215.723" y2="159.281"/>
	<line style="fill:none;stroke:#00FFFF;" x1="172.743" y1="233.016" x2="215.723" y2="233.979"/>
	<line style="fill:none;stroke:#00FFFF;" x1="215.723" y1="233.979" x2="215.723" y2="277.197"/>
	<line style="fill:none;stroke:#00FFFF;" x1="307.441" y1="63.193" x2="299.421" y2="46.927"/>
	<line style="fill:none;stroke:#00FFFF;" x1="307.441" y1="63.193" x2="276.892" y2="63.939"/>
	<line style="fill:none;stroke:#00FFFF;" x1="420.605" y1="5.087" x2="412.688" y2="31.125"/>
	<line style="fill:none;stroke:#00FFFF;" x1="412.688" y1="31.125" x2="443.23" y2="30.26"/>
	<line style="fill:none;stroke:#00FFFF;" x1="412.688" y1="31.125" x2="412.688" y2="64.686"/>
	<line style="fill:none;stroke:#00FFFF;" x1="215.723" y1="206.391" x2="260.681" y2="206.391"/>
	<line style="fill:none;stroke:#00FFFF;" x1="260.681" y1="206.391" x2="271.755" y2="227.164"/>
	<line style="fill:none;stroke:#00FFFF;" x1="260.681" y1="206.391" x2="301.994" y2="206.391"/>
	<line style="fill:none;stroke:#00FFFF;" x1="306.531" y1="184.445" x2="301.994" y2="206.391"/>
	<line style="fill:none;stroke:#00FFFF;" x1="344.281" y1="206.391" x2="301.994" y2="206.391"/>
	<line style="fill:none;stroke:#00FFFF;" x1="344.281" y1="189.447" x2="344.281" y2="206.391"/>
	<line style="fill:none;stroke:#00FFFF;" x1="344.281" y1="206.391" x2="339.365" y2="227.164"/>
	<line style="fill:none;stroke:#00FFFF;" x1="412.688" y1="206.391" x2="344.281" y2="206.391"/>
	<line style="fill:none;stroke:#00FFFF;" x1="412.688" y1="243.842" x2="443.879" y2="243.139"/>
	<line style="fill:none;stroke:#00FFFF;" x1="412.688" y1="243.842" x2="412.688" y2="277.197"/>
	<line style="fill:none;stroke:#00FFFF;" x1="412.688" y1="206.391" x2="412.688" y2="243.842"/>
	<line style="fill:none;stroke:#00FFFF;" x1="412.688" y1="206.391" x2="412.688" y2="135.582"/>
	<line style="fill:none;stroke:#00FFFF;" x1="412.688" y1="135.582" x2="450.969" y2="135.582"/>
	<line style="fill:none;stroke:#00FFFF;" x1="412.688" y1="114.74" x2="412.688" y2="135.582"/>
	<line style="fill:none;stroke:#00FFFF;" x1="363.9" y1="115.103" x2="412.688" y2="114.74"/>
	<line style="fill:none;stroke:#00FFFF;" x1="412.688" y1="64.686" x2="412.688" y2="114.74"/>
	<line style="fill:none;stroke:#00FFFF;" x1="412.688" y1="64.686" x2="376.656" y2="64.686"/>
	<line style="fill:none;stroke:#00FFFF;" x1="376.656" y1="64.686" x2="370.516" y2="46.927"/>
	<line style="fill:none;stroke:#00FFFF;" x1="376.656" y1="64.686" x2="347.643" y2="64.686"/>
	<line style="fill:none;stroke:#00FFFF;" x1="347.643" y1="85.253" x2="347.643" y2="64.686"/>
	<line style="fill:none;stroke:#00FFFF;" x1="347.643" y1="64.686" x2="331.088" y2="64.686"/>
	<line style="fill:none;stroke:#00FFFF;" x1="241.93" y1="64.686" x2="215.723" y2="64.686"/>
	<line style="fill:none;stroke:#00FFFF;" x1="331.088" y1="64.686" x2="307.441" y2="63.193"/>
	<line style="fill:none;stroke:#00FFFF;" x1="215.723" y1="64.686" x2="172.743" y2="62.728"/>
	<line style="fill:none;stroke:#00FFFF;" x1="307.176" y1="85.55" x2="307.441" y2="63.193"/>
	<line style="fill:none;stroke:#00FFFF;" x1="172.743" y1="159.723" x2="215.723" y2="159.281"/>
	<line style="fill:none;stroke:#00FFFF;" x1="215.723" y1="138.071" x2="215.723" y2="159.281"/>
	<line style="fill:none;stroke:#00FFFF;" x1="241.93" y1="64.686" x2="232.563" y2="47.074"/>
	<line style="fill:none;stroke:#00FFFF;" x1="255.318" y1="135.582" x2="215.723" y2="138.071"/>
	<line style="fill:none;stroke:#00FFFF;" x1="276.892" y1="63.939" x2="241.93" y2="64.686"/>
	<line style="fill:none;stroke:#00FFFF;" x1="215.723" y1="138.071" x2="215.723" y2="64.686"/>
	<line style="fill:none;stroke:#00FFFF;" x1="331.088" y1="84.504" x2="331.088" y2="64.686"/>
</g>
</svg>
